<svg width="24" height="24" viewBox="0 0 160 160" fill="none" xmlns="http://www.w3.org/2000/svg">
  <rect width="160" height="160" rx="40" fill="url(#bg)"/>
  <circle cx="80" cy="80" r="56" fill="url(#orb)" fill-opacity="0.24"/>
  <path d="M56 40H86C107.539 40 125 57.461 125 79V80C125 102.644 106.644 121 84 121H56V40Z" fill="white"/>
  <path d="M74 57C90.0163 57 103 69.9837 103 86C103 102.016 90.0163 115 74 115H56V57H74Z" fill="url(#cut)"/>
  <path d="M80 63C92.1503 63 102 72.8497 102 85C102 97.1503 92.1503 107 80 107C67.8497 107 58 97.1503 58 85C58 72.8497 67.8497 63 80 63Z" fill="white" fill-opacity="0.92"/>
  <circle cx="80" cy="85" r="10" fill="url(#bg)"/>
  <circle cx="80" cy="85" r="4" fill="white"/>
  <defs>
    <linearGradient id="bg" x1="18" y1="16" x2="138" y2="144" gradientUnits="userSpaceOnUse">
      <stop stop-color="#3D4BFF"/>
      <stop offset="0.5" stop-color="#5B6CFF"/>
      <stop offset="1" stop-color="#0F172A"/>
    </linearGradient>
    <linearGradient id="orb" x1="44" y1="30" x2="123" y2="128" gradientUnits="userSpaceOnUse">
      <stop stop-color="white"/>
      <stop offset="1" stop-color="white" stop-opacity="0"/>
    </linearGradient>
    <linearGradient id="cut" x1="56" y1="57" x2="103" y2="115" gradientUnits="userSpaceOnUse">
      <stop stop-color="#B9C3FF"/>
      <stop offset="1" stop-color="#6376FF"/>
    </linearGradient>
  </defs>
</svg>
